<!--?xml version="1.0" standalone="no"?-->
              <svg id="sw-js-blob-svg" viewBox="0 0 100 100" xmlns="http://www.w3.org/2000/svg" version="1.1">
                    <defs> 
                        <linearGradient id="sw-gradient" x1="0" x2="1" y1="1" y2="0">
                            <stop id="stop1" stop-color="rgba(0, 0, 0, 0.1)" offset="0%"></stop>
                            <stop id="stop2" stop-color="rgba(0, 0, 0, 0.1)" offset="100%"></stop>
                        </linearGradient>
                    </defs>
                <path fill="url(#sw-gradient)" d="M29.1,-35C37,-28.1,42.1,-18.2,42.2,-8.8C42.3,0.7,37.4,9.7,31.8,17.4C26.2,25,19.9,31.2,12.3,34.3C4.6,37.3,-4.5,37.2,-13.9,35.1C-23.3,32.9,-33,28.8,-38.4,21.3C-43.7,13.8,-44.6,2.9,-42,-6.7C-39.5,-16.3,-33.5,-24.6,-26,-31.5C-18.4,-38.5,-9.2,-44,0.7,-44.9C10.6,-45.8,21.3,-41.9,29.1,-35Z" width="100%" height="100%" transform="translate(50 50)" stroke-width="0" style="transition: all 0.3s ease 0s;"></path>
              </svg>