<svg width="3218" height="1822" viewBox="0 0 3218 1822" fill="none" xmlns="http://www.w3.org/2000/svg">
<path d="M129.024 1540.2H241.152V1617H28.672V1256.04H129.024V1540.2ZM574.06 1329.77V1617H473.196V1576.04C464.663 1589.01 452.887 1599.59 437.868 1607.78C422.849 1615.63 405.612 1619.56 386.156 1619.56C352.705 1619.56 326.252 1608.64 306.796 1586.79C287.681 1564.61 278.124 1534.57 278.124 1496.68V1329.77H377.964V1483.88C377.964 1500.26 382.231 1513.23 390.764 1522.79C399.639 1532.01 411.244 1536.62 425.58 1536.62C440.257 1536.62 451.863 1532.01 460.396 1522.79C468.929 1513.23 473.196 1500.26 473.196 1483.88V1329.77H574.06ZM681.86 1303.14C664.111 1303.14 649.775 1298.37 638.852 1288.81C628.271 1278.91 622.98 1266.62 622.98 1251.94C622.98 1236.93 628.271 1224.47 638.852 1214.57C649.775 1204.67 664.111 1199.72 681.86 1199.72C699.268 1199.72 713.263 1204.67 723.844 1214.57C734.767 1224.47 740.228 1236.93 740.228 1251.94C740.228 1266.62 734.767 1278.91 723.844 1288.81C713.263 1298.37 699.268 1303.14 681.86 1303.14ZM731.524 1329.77V1617H631.172V1329.77H731.524ZM883.904 1533.54H1006.27V1617H773.312V1537.64L887.488 1413.22H774.336V1329.77H1002.18V1409.13L883.904 1533.54ZM1319.23 1620.58C1285.44 1620.58 1254.37 1612.73 1226.04 1597.03C1197.71 1580.99 1175.19 1558.97 1158.46 1530.98C1142.08 1502.65 1133.88 1470.74 1133.88 1435.24C1133.88 1399.74 1142.08 1368 1158.46 1340.01C1175.19 1311.68 1197.71 1289.66 1226.04 1273.96C1254.37 1258.26 1285.44 1250.41 1319.23 1250.41C1353.36 1250.41 1384.42 1258.26 1412.41 1273.96C1440.74 1289.66 1463.1 1311.68 1479.48 1340.01C1495.87 1368 1504.06 1399.74 1504.06 1435.24C1504.06 1470.74 1495.87 1502.65 1479.48 1530.98C1463.1 1558.97 1440.74 1580.99 1412.41 1597.03C1384.08 1612.73 1353.02 1620.58 1319.23 1620.58ZM1319.23 1527.4C1344.83 1527.4 1364.97 1519.04 1379.64 1502.31C1394.66 1485.59 1402.17 1463.23 1402.17 1435.24C1402.17 1406.57 1394.66 1384.04 1379.64 1367.66C1364.97 1350.93 1344.83 1342.57 1319.23 1342.57C1293.29 1342.57 1272.98 1350.93 1258.3 1367.66C1243.62 1384.04 1236.28 1406.57 1236.28 1435.24C1236.28 1463.57 1243.62 1486.1 1258.3 1502.82C1272.98 1519.21 1293.29 1527.4 1319.23 1527.4ZM1649.52 1238.12V1617H1549.17V1238.12H1649.52ZM1757.36 1303.14C1739.61 1303.14 1725.27 1298.37 1714.35 1288.81C1703.77 1278.91 1698.48 1266.62 1698.48 1251.94C1698.48 1236.93 1703.77 1224.47 1714.35 1214.57C1725.27 1204.67 1739.61 1199.72 1757.36 1199.72C1774.77 1199.72 1788.76 1204.67 1799.34 1214.57C1810.27 1224.47 1815.73 1236.93 1815.73 1251.94C1815.73 1266.62 1810.27 1278.91 1799.34 1288.81C1788.76 1298.37 1774.77 1303.14 1757.36 1303.14ZM1807.02 1329.77V1617H1706.67V1329.77H1807.02ZM2001.9 1522.28L2055.66 1329.77H2162.67L2063.85 1617H1938.92L1840.11 1329.77H1947.12L2001.9 1522.28ZM2471.1 1470.06C2471.1 1477.91 2470.59 1485.76 2469.57 1493.61H2279.62C2280.64 1509.31 2284.91 1521.09 2292.42 1528.94C2300.27 1536.45 2310.17 1540.2 2322.11 1540.2C2338.84 1540.2 2350.78 1532.69 2357.95 1517.67H2464.96C2460.52 1537.47 2451.82 1555.22 2438.85 1570.92C2426.22 1586.28 2410.18 1598.4 2390.72 1607.27C2371.26 1616.15 2349.76 1620.58 2326.21 1620.58C2297.88 1620.58 2272.62 1614.61 2250.43 1602.66C2228.59 1590.72 2211.35 1573.65 2198.72 1551.46C2186.43 1529.28 2180.29 1503.17 2180.29 1473.13C2180.29 1443.09 2186.43 1417.15 2198.72 1395.3C2211.01 1373.12 2228.07 1356.05 2249.92 1344.1C2272.11 1332.16 2297.54 1326.18 2326.21 1326.18C2354.54 1326.18 2379.63 1331.99 2401.47 1343.59C2423.32 1355.2 2440.38 1371.92 2452.67 1393.77C2464.96 1415.27 2471.1 1440.7 2471.1 1470.06ZM2368.7 1444.97C2368.7 1432.68 2364.61 1423.12 2356.42 1416.3C2348.22 1409.13 2337.98 1405.54 2325.7 1405.54C2313.41 1405.54 2303.34 1408.96 2295.49 1415.78C2287.64 1422.27 2282.52 1432 2280.13 1444.97H2368.7ZM2562.86 1303.14C2545.11 1303.14 2530.77 1298.37 2519.85 1288.81C2509.27 1278.91 2503.98 1266.62 2503.98 1251.94C2503.98 1236.93 2509.27 1224.47 2519.85 1214.57C2530.77 1204.67 2545.11 1199.72 2562.86 1199.72C2580.27 1199.72 2594.26 1204.67 2604.84 1214.57C2615.77 1224.47 2621.23 1236.93 2621.23 1251.94C2621.23 1266.62 2615.77 1278.91 2604.84 1288.81C2594.26 1298.37 2580.27 1303.14 2562.86 1303.14ZM2612.52 1329.77V1617H2512.17V1329.77H2612.52ZM2770.02 1380.46C2781.29 1364.07 2794.94 1351.1 2810.98 1341.54C2827.03 1331.99 2844.26 1327.21 2862.7 1327.21V1434.22H2834.54C2812.69 1434.22 2796.48 1438.48 2785.9 1447.02C2775.31 1455.55 2770.02 1470.4 2770.02 1491.56V1617H2669.67V1329.77H2770.02V1380.46ZM2882.29 1473.13C2882.29 1443.43 2887.58 1417.49 2898.16 1395.3C2909.08 1373.12 2923.76 1356.05 2942.19 1344.1C2960.97 1332.16 2981.79 1326.18 3004.66 1326.18C3024.45 1326.18 3041.52 1330.11 3055.86 1337.96C3070.19 1345.81 3081.29 1356.39 3089.14 1369.7V1329.77H3189.49V1617H3089.14V1577.06C3081.29 1590.38 3070.02 1600.96 3055.34 1608.81C3041.01 1616.66 3024.11 1620.58 3004.66 1620.58C2981.79 1620.58 2960.97 1614.61 2942.19 1602.66C2923.76 1590.72 2909.08 1573.65 2898.16 1551.46C2887.58 1528.94 2882.29 1502.82 2882.29 1473.13ZM3089.14 1473.13C3089.14 1454.7 3084.02 1440.19 3073.78 1429.61C3063.88 1419.03 3051.59 1413.74 3036.91 1413.74C3021.89 1413.74 3009.43 1419.03 2999.54 1429.61C2989.64 1439.85 2984.69 1454.35 2984.69 1473.13C2984.69 1491.56 2989.64 1506.24 2999.54 1517.16C3009.43 1527.74 3021.89 1533.03 3036.91 1533.03C3051.59 1533.03 3063.88 1527.74 3073.78 1517.16C3084.02 1506.58 3089.14 1491.9 3089.14 1473.13Z" fill="#F0F0F5"/>
<rect x="1230" width="758" height="758" rx="50" fill="#6673D7"/>
<rect x="1824" y="378.77" width="60.7028" height="182.109" rx="10" transform="rotate(135 1824 378.77)" fill="#F0F0F5"/>
<rect x="1695.23" y="507.487" width="60.7028" height="182.109" rx="10" transform="rotate(-135 1695.23 507.487)" fill="#F0F0F5"/>
<rect x="1393" y="378.717" width="60.7028" height="182.109" rx="10" transform="rotate(-45 1393 378.717)" fill="#F0F0F5"/>
<rect x="1521.77" y="250" width="60.7028" height="182.109" rx="10" transform="rotate(45 1521.77 250)" fill="#F0F0F5"/>
</svg>
