<svg width="7" height="7" viewBox="0 0 7 7" fill="none" xmlns="http://www.w3.org/2000/svg">
<rect width="1" height="1" rx="0.5" fill="#FAFAFA" fill-opacity="0.2"/>
<rect x="2" width="1" height="1" rx="0.5" fill="#FAFAFA" fill-opacity="0.2"/>
<rect x="4" width="1" height="1" rx="0.5" fill="#FAFAFA" fill-opacity="0.2"/>
<rect x="6" width="1" height="1" rx="0.5" fill="#FAFAFA" fill-opacity="0.2"/>
<rect y="6" width="1" height="1" rx="0.5" fill="#FAFAFA" fill-opacity="0.2"/>
<rect x="2" y="6" width="1" height="1" rx="0.5" fill="#FAFAFA" fill-opacity="0.2"/>
<rect x="4" y="6" width="1" height="1" rx="0.5" fill="#FAFAFA" fill-opacity="0.2"/>
<rect x="6" y="6" width="1" height="1" rx="0.5" fill="#FAFAFA" fill-opacity="0.2"/>
<rect y="4" width="1" height="1" rx="0.5" fill="#FAFAFA" fill-opacity="0.2"/>
<rect x="2" y="4" width="1" height="1" rx="0.5" fill="#FAFAFA" fill-opacity="0.2"/>
<rect x="4" y="4" width="1" height="1" rx="0.5" fill="#FAFAFA" fill-opacity="0.2"/>
<rect x="6" y="4" width="1" height="1" rx="0.5" fill="#FAFAFA" fill-opacity="0.2"/>
<rect y="2" width="1" height="1" rx="0.5" fill="#FAFAFA" fill-opacity="0.2"/>
<rect x="2" y="2" width="1" height="1" rx="0.5" fill="#FAFAFA" fill-opacity="0.2"/>
<rect x="4" y="2" width="1" height="1" rx="0.5" fill="#FAFAFA" fill-opacity="0.2"/>
<rect x="6" y="2" width="1" height="1" rx="0.5" fill="#FAFAFA" fill-opacity="0.2"/>
</svg>
