<svg width="10" height="62" viewBox="0 0 10 62" fill="none" xmlns="http://www.w3.org/2000/svg">
<path d="M7.34375 55.9629C7.14453 55.9629 6.96875 55.9941 6.81641 56.0566C6.66016 56.1152 6.51953 56.2207 6.39453 56.373C6.26953 56.5215 6.15039 56.7285 6.03711 56.9941C5.92383 57.2559 5.80859 57.5879 5.69141 57.9902C5.56641 58.4121 5.42773 58.793 5.27539 59.1328C5.11914 59.4727 4.94141 59.7637 4.74219 60.0059C4.54297 60.248 4.31445 60.4336 4.05664 60.5625C3.79883 60.6914 3.50391 60.7559 3.17188 60.7559C2.83984 60.7559 2.5332 60.6875 2.25195 60.5508C1.9707 60.4141 1.72656 60.2188 1.51953 59.9648C1.30859 59.707 1.14453 59.4004 1.02734 59.0449C0.910156 58.6895 0.851562 58.293 0.851562 57.8555C0.851562 57.2148 0.974609 56.6719 1.2207 56.2266C1.46289 55.7773 1.78125 55.4355 2.17578 55.2012C2.56641 54.9668 2.98438 54.8496 3.42969 54.8496V55.9746C3.10938 55.9746 2.82617 56.043 2.58008 56.1797C2.33008 56.3164 2.13477 56.5234 1.99414 56.8008C1.84961 57.0781 1.77734 57.4297 1.77734 57.8555C1.77734 58.2578 1.83789 58.5898 1.95898 58.8516C2.08008 59.1133 2.24414 59.3086 2.45117 59.4375C2.6582 59.5625 2.89453 59.625 3.16016 59.625C3.33984 59.625 3.50391 59.5879 3.65234 59.5137C3.79688 59.4355 3.93164 59.3164 4.05664 59.1562C4.18164 58.9922 4.29688 58.7852 4.40234 58.5352C4.50781 58.2812 4.60938 57.9785 4.70703 57.627C4.84375 57.1426 4.99609 56.7246 5.16406 56.373C5.33203 56.0215 5.52148 55.7324 5.73242 55.5059C5.93945 55.2754 6.17578 55.1055 6.44141 54.9961C6.70312 54.8828 7 54.8262 7.33203 54.8262C7.67969 54.8262 7.99414 54.8965 8.27539 55.0371C8.55664 55.1777 8.79688 55.3789 8.99609 55.6406C9.19531 55.9023 9.34961 56.2168 9.45898 56.584C9.56445 56.9473 9.61719 57.3535 9.61719 57.8027C9.61719 58.1973 9.5625 58.5859 9.45312 58.9688C9.34375 59.3477 9.17969 59.6934 8.96094 60.0059C8.74219 60.3145 8.47266 60.5625 8.15234 60.75C7.82812 60.9336 7.45312 61.0254 7.02734 61.0254V59.9004C7.32031 59.9004 7.57227 59.8438 7.7832 59.7305C7.99023 59.6172 8.16211 59.4629 8.29883 59.2676C8.43555 59.0684 8.53711 58.8438 8.60352 58.5938C8.66602 58.3398 8.69727 58.0762 8.69727 57.8027C8.69727 57.4082 8.64258 57.0742 8.5332 56.8008C8.42383 56.5273 8.26758 56.3203 8.06445 56.1797C7.86133 56.0352 7.62109 55.9629 7.34375 55.9629ZM8.72656 51.0117C8.72656 50.7539 8.67383 50.5156 8.56836 50.2969C8.46289 50.0781 8.31836 49.8984 8.13477 49.7578C7.94727 49.6172 7.73438 49.5371 7.49609 49.5176V48.4863C7.87109 48.5059 8.2207 48.6328 8.54492 48.8672C8.86523 49.0977 9.125 49.4004 9.32422 49.7754C9.51953 50.1504 9.61719 50.5625 9.61719 51.0117C9.61719 51.4883 9.5332 51.9043 9.36523 52.2598C9.19727 52.6113 8.9668 52.9043 8.67383 53.1387C8.38086 53.3691 8.04492 53.543 7.66602 53.6602C7.2832 53.7734 6.87891 53.8301 6.45312 53.8301H6.20703C5.78125 53.8301 5.37891 53.7734 5 53.6602C4.61719 53.543 4.2793 53.3691 3.98633 53.1387C3.69336 52.9043 3.46289 52.6113 3.29492 52.2598C3.12695 51.9043 3.04297 51.4883 3.04297 51.0117C3.04297 50.5156 3.14453 50.082 3.34766 49.7109C3.54688 49.3398 3.82031 49.0488 4.16797 48.8379C4.51172 48.623 4.90234 48.5059 5.33984 48.4863V49.5176C5.07812 49.5371 4.8418 49.6113 4.63086 49.7402C4.41992 49.8652 4.25195 50.0371 4.12695 50.2559C3.99805 50.4707 3.93359 50.7227 3.93359 51.0117C3.93359 51.3438 4 51.623 4.13281 51.8496C4.26172 52.0723 4.4375 52.25 4.66016 52.3828C4.87891 52.5117 5.12305 52.6055 5.39258 52.6641C5.6582 52.7188 5.92969 52.7461 6.20703 52.7461H6.45312C6.73047 52.7461 7.00391 52.7188 7.27344 52.6641C7.54297 52.6094 7.78711 52.5176 8.00586 52.3887C8.22461 52.2559 8.40039 52.0781 8.5332 51.8555C8.66211 51.6289 8.72656 51.3477 8.72656 51.0117ZM4.15625 46.1836H9.5V47.2676H3.16016V46.2129L4.15625 46.1836ZM3.125 44.2031L4.13281 44.209C4.11328 44.2988 4.10156 44.3848 4.09766 44.4668C4.08984 44.5449 4.08594 44.6348 4.08594 44.7363C4.08594 44.9863 4.125 45.207 4.20312 45.3984C4.28125 45.5898 4.39062 45.752 4.53125 45.8848C4.67188 46.0176 4.83984 46.123 5.03516 46.2012C5.22656 46.2754 5.4375 46.3242 5.66797 46.3477L5.84375 46.6523C5.46094 46.6523 5.10156 46.6152 4.76562 46.541C4.42969 46.4629 4.13281 46.3438 3.875 46.1836C3.61328 46.0234 3.41016 45.8203 3.26562 45.5742C3.11719 45.3242 3.04297 45.0273 3.04297 44.6836C3.04297 44.6055 3.05273 44.5156 3.07227 44.4141C3.08789 44.3125 3.10547 44.2422 3.125 44.2031ZM6.40039 43.6055H6.26562C5.80859 43.6055 5.38477 43.5391 4.99414 43.4062C4.59961 43.2734 4.25781 43.082 3.96875 42.832C3.67578 42.582 3.44922 42.2793 3.28906 41.9238C3.125 41.5684 3.04297 41.1699 3.04297 40.7285C3.04297 40.2832 3.125 39.8828 3.28906 39.5273C3.44922 39.168 3.67578 38.8633 3.96875 38.6133C4.25781 38.3594 4.59961 38.166 4.99414 38.0332C5.38477 37.9004 5.80859 37.834 6.26562 37.834H6.40039C6.85742 37.834 7.28125 37.9004 7.67188 38.0332C8.0625 38.166 8.4043 38.3594 8.69727 38.6133C8.98633 38.8633 9.21289 39.166 9.37695 39.5215C9.53711 39.873 9.61719 40.2715 9.61719 40.7168C9.61719 41.1621 9.53711 41.5625 9.37695 41.918C9.21289 42.2734 8.98633 42.5781 8.69727 42.832C8.4043 43.082 8.0625 43.2734 7.67188 43.4062C7.28125 43.5391 6.85742 43.6055 6.40039 43.6055ZM6.26562 42.5215H6.40039C6.7168 42.5215 7.01562 42.4844 7.29688 42.4102C7.57422 42.3359 7.82031 42.2246 8.03516 42.0762C8.25 41.9238 8.41992 41.7344 8.54492 41.5078C8.66602 41.2812 8.72656 41.0176 8.72656 40.7168C8.72656 40.4199 8.66602 40.1602 8.54492 39.9375C8.41992 39.7109 8.25 39.5234 8.03516 39.375C7.82031 39.2266 7.57422 39.1152 7.29688 39.041C7.01562 38.9629 6.7168 38.9238 6.40039 38.9238H6.26562C5.95312 38.9238 5.6582 38.9629 5.38086 39.041C5.09961 39.1152 4.85156 39.2285 4.63672 39.3809C4.41797 39.5293 4.24609 39.7168 4.12109 39.9434C3.99609 40.166 3.93359 40.4277 3.93359 40.7285C3.93359 41.0254 3.99609 41.2871 4.12109 41.5137C4.24609 41.7363 4.41797 41.9238 4.63672 42.0762C4.85156 42.2246 5.09961 42.3359 5.38086 42.4102C5.6582 42.4844 5.95312 42.5215 6.26562 42.5215ZM0.5 35.2969H9.5V36.3867H0.5V35.2969ZM0.5 32.3789H9.5V33.4688H0.5V32.3789ZM8.26953 23.666H0.5V22.5762H9.5V23.5723L8.26953 23.666ZM6.40039 27.9316H6.27734C5.79297 27.9316 5.35352 27.873 4.95898 27.7559C4.56055 27.6348 4.21875 27.4648 3.93359 27.2461C3.64844 27.0234 3.42969 26.7598 3.27734 26.4551C3.12109 26.1465 3.04297 25.8027 3.04297 25.4238C3.04297 25.0254 3.11328 24.6777 3.25391 24.3809C3.39062 24.0801 3.5918 23.8262 3.85742 23.6191C4.11914 23.4082 4.43555 23.2422 4.80664 23.1211C5.17773 23 5.59766 22.916 6.06641 22.8691H6.60547C7.07031 22.9121 7.48828 22.9961 7.85938 23.1211C8.23047 23.2422 8.54688 23.4082 8.80859 23.6191C9.07031 23.8262 9.27148 24.0801 9.41211 24.3809C9.54883 24.6816 9.61719 25.0332 9.61719 25.4355C9.61719 25.8066 9.53711 26.1465 9.37695 26.4551C9.2168 26.7598 8.99219 27.0234 8.70312 27.2461C8.41406 27.4648 8.07422 27.6348 7.68359 27.7559C7.28906 27.873 6.86133 27.9316 6.40039 27.9316ZM6.27734 26.8418H6.40039C6.7168 26.8418 7.01367 26.8105 7.29102 26.748C7.56836 26.6816 7.8125 26.5801 8.02344 26.4434C8.23438 26.3066 8.40039 26.1328 8.52148 25.9219C8.63867 25.7109 8.69727 25.459 8.69727 25.166C8.69727 24.8066 8.62109 24.5117 8.46875 24.2812C8.31641 24.0469 8.11523 23.8594 7.86523 23.7188C7.61523 23.5781 7.34375 23.4688 7.05078 23.3906H5.63867C5.42383 23.4375 5.2168 23.5059 5.01758 23.5957C4.81445 23.6816 4.63477 23.7949 4.47852 23.9355C4.31836 24.0723 4.19141 24.2422 4.09766 24.4453C4.00391 24.6445 3.95703 24.8809 3.95703 25.1543C3.95703 25.4512 4.01953 25.707 4.14453 25.9219C4.26562 26.1328 4.43359 26.3066 4.64844 26.4434C4.85938 26.5801 5.10547 26.6816 5.38672 26.748C5.66406 26.8105 5.96094 26.8418 6.27734 26.8418ZM6.40039 21.1758H6.26562C5.80859 21.1758 5.38477 21.1094 4.99414 20.9766C4.59961 20.8438 4.25781 20.6523 3.96875 20.4023C3.67578 20.1523 3.44922 19.8496 3.28906 19.4941C3.125 19.1387 3.04297 18.7402 3.04297 18.2988C3.04297 17.8535 3.125 17.4531 3.28906 17.0977C3.44922 16.7383 3.67578 16.4336 3.96875 16.1836C4.25781 15.9297 4.59961 15.7363 4.99414 15.6035C5.38477 15.4707 5.80859 15.4043 6.26562 15.4043H6.40039C6.85742 15.4043 7.28125 15.4707 7.67188 15.6035C8.0625 15.7363 8.4043 15.9297 8.69727 16.1836C8.98633 16.4336 9.21289 16.7363 9.37695 17.0918C9.53711 17.4434 9.61719 17.8418 9.61719 18.2871C9.61719 18.7324 9.53711 19.1328 9.37695 19.4883C9.21289 19.8438 8.98633 20.1484 8.69727 20.4023C8.4043 20.6523 8.0625 20.8438 7.67188 20.9766C7.28125 21.1094 6.85742 21.1758 6.40039 21.1758ZM6.26562 20.0918H6.40039C6.7168 20.0918 7.01562 20.0547 7.29688 19.9805C7.57422 19.9062 7.82031 19.7949 8.03516 19.6465C8.25 19.4941 8.41992 19.3047 8.54492 19.0781C8.66602 18.8516 8.72656 18.5879 8.72656 18.2871C8.72656 17.9902 8.66602 17.7305 8.54492 17.5078C8.41992 17.2812 8.25 17.0938 8.03516 16.9453C7.82031 16.7969 7.57422 16.6855 7.29688 16.6113C7.01562 16.5332 6.7168 16.4941 6.40039 16.4941H6.26562C5.95312 16.4941 5.6582 16.5332 5.38086 16.6113C5.09961 16.6855 4.85156 16.7988 4.63672 16.9512C4.41797 17.0996 4.24609 17.2871 4.12109 17.5137C3.99609 17.7363 3.93359 17.998 3.93359 18.2988C3.93359 18.5957 3.99609 18.8574 4.12109 19.084C4.24609 19.3066 4.41797 19.4941 4.63672 19.6465C4.85156 19.7949 5.09961 19.9062 5.38086 19.9805C5.6582 20.0547 5.95312 20.0918 6.26562 20.0918ZM8.375 12.4395L3.16016 10.8105V10.0957L4.19727 10.2363L9.5 11.8945V12.5918L8.375 12.4395ZM3.16016 13.5352L8.43359 12.1465L9.5 12.0469V12.7793L3.16016 14.6191V13.5352ZM8.39258 8.53711L3.16016 7.21289V6.13477L9.5 7.97461V8.70117L8.39258 8.53711ZM3.16016 9.9375L8.28711 8.34375L9.5 8.16211V8.85352L4.18555 10.5586L3.16016 10.6992V9.9375ZM4.51367 3.9375H9.5V5.02148H3.16016V3.99609L4.51367 3.9375ZM6.08984 4.19531L6.07227 4.64648C5.63867 4.64258 5.23828 4.57812 4.87109 4.45312C4.5 4.32812 4.17773 4.15234 3.9043 3.92578C3.63086 3.69922 3.41992 3.42969 3.27148 3.11719C3.11914 2.80078 3.04297 2.45117 3.04297 2.06836C3.04297 1.75586 3.08594 1.47461 3.17188 1.22461C3.25391 0.974609 3.38672 0.761719 3.57031 0.585938C3.75391 0.40625 3.99219 0.269531 4.28516 0.175781C4.57422 0.0820312 4.92773 0.0351562 5.3457 0.0351562H9.5V1.125H5.33398C5.00195 1.125 4.73633 1.17383 4.53711 1.27148C4.33398 1.36914 4.1875 1.51172 4.09766 1.69922C4.00391 1.88672 3.95703 2.11719 3.95703 2.39062C3.95703 2.66016 4.01367 2.90625 4.12695 3.12891C4.24023 3.34766 4.39648 3.53711 4.5957 3.69727C4.79492 3.85352 5.02344 3.97656 5.28125 4.06641C5.53516 4.15234 5.80469 4.19531 6.08984 4.19531Z" fill="#F0F0F5"/>
</svg>
